<?xml version="1.0" encoding="UTF-8" standalone="no"?>
<!-- Created with Inkscape (http://www.inkscape.org/) -->

<svg
   xmlns:dc="http://purl.org/dc/elements/1.1/"
   xmlns:cc="http://creativecommons.org/ns#"
   xmlns:rdf="http://www.w3.org/1999/02/22-rdf-syntax-ns#"
   xmlns:svg="http://www.w3.org/2000/svg"
   xmlns="http://www.w3.org/2000/svg"
   xmlns:sodipodi="http://sodipodi.sourceforge.net/DTD/sodipodi-0.dtd"
   xmlns:inkscape="http://www.inkscape.org/namespaces/inkscape"
   width="405mm"
   height="80mm"
   viewBox="0 0 405 80"
   version="1.1"
   id="svg8"
   inkscape:version="0.92.1 r15371"
   sodipodi:docname="elakvi logo.svg">
  <defs
     id="defs2">
    <inkscape:path-effect
       fuse_tolerance="0"
       vertical_pattern="false"
       prop_units="false"
       tang_offset="0"
       normal_offset="0"
       spacing="0"
       scale_y_rel="false"
       prop_scale="0.26458333"
       copytype="single_stretched"
       pattern="M 0,5 C 0,2.24 2.24,0 5,0 7.76,0 10,2.24 10,5 10,7.76 7.76,10 5,10 2.24,10 0,7.76 0,5 Z"
       is_visible="true"
       id="path-effect4517"
       effect="skeletal" />
    <inkscape:path-effect
       fuse_tolerance="0"
       vertical_pattern="false"
       prop_units="false"
       tang_offset="0"
       normal_offset="0"
       spacing="0"
       scale_y_rel="false"
       prop_scale="0.26458333"
       copytype="single_stretched"
       pattern="M 0,5 C 0,2.24 2.24,0 5,0 7.76,0 10,2.24 10,5 10,7.76 7.76,10 5,10 2.24,10 0,7.76 0,5 Z"
       is_visible="true"
       id="path-effect4513"
       effect="skeletal" />
    <inkscape:path-effect
       fuse_tolerance="0"
       vertical_pattern="false"
       prop_units="false"
       tang_offset="0"
       normal_offset="0"
       spacing="0"
       scale_y_rel="false"
       prop_scale="0.26458333"
       copytype="single_stretched"
       pattern="M 0,5 C 0,2.24 2.24,0 5,0 7.76,0 10,2.24 10,5 10,7.76 7.76,10 5,10 2.24,10 0,7.76 0,5 Z"
       is_visible="true"
       id="path-effect4509"
       effect="skeletal" />
    <inkscape:path-effect
       fuse_tolerance="0"
       vertical_pattern="false"
       prop_units="false"
       tang_offset="0"
       normal_offset="0"
       spacing="0"
       scale_y_rel="false"
       prop_scale="1"
       copytype="single_stretched"
       pattern="M 0,0 H 1"
       is_visible="true"
       id="path-effect4570"
       effect="skeletal" />
    <inkscape:path-effect
       fuse_tolerance="0"
       vertical_pattern="false"
       prop_units="false"
       tang_offset="0"
       normal_offset="0"
       spacing="0"
       scale_y_rel="false"
       prop_scale="0.26458333"
       copytype="single_stretched"
       pattern="M 0,5 C 0,2.24 2.24,0 5,0 7.76,0 10,2.24 10,5 10,7.76 7.76,10 5,10 2.24,10 0,7.76 0,5 Z"
       is_visible="true"
       id="path-effect4554"
       effect="skeletal" />
    <inkscape:path-effect
       fuse_tolerance="0"
       vertical_pattern="false"
       prop_units="false"
       tang_offset="0"
       normal_offset="0"
       spacing="0"
       scale_y_rel="false"
       prop_scale="0.26458333"
       copytype="single_stretched"
       pattern="M 0,5 C 0,2.24 2.24,0 5,0 7.76,0 10,2.24 10,5 10,7.76 7.76,10 5,10 2.24,10 0,7.76 0,5 Z"
       is_visible="true"
       id="path-effect4550"
       effect="skeletal" />
    <inkscape:path-effect
       fuse_tolerance="0"
       vertical_pattern="false"
       prop_units="false"
       tang_offset="0"
       normal_offset="0"
       spacing="0"
       scale_y_rel="false"
       prop_scale="0.26458333"
       copytype="single_stretched"
       pattern="M 0,5 C 0,2.24 2.24,0 5,0 7.76,0 10,2.24 10,5 10,7.76 7.76,10 5,10 2.24,10 0,7.76 0,5 Z"
       is_visible="true"
       id="path-effect4546"
       effect="skeletal" />
    <inkscape:path-effect
       fuse_tolerance="0"
       vertical_pattern="false"
       prop_units="false"
       tang_offset="0"
       normal_offset="0"
       spacing="0"
       scale_y_rel="false"
       prop_scale="0.26458333"
       copytype="single_stretched"
       pattern="m -0.52916667,5 c 0,-2.76 2.23999997,-5 4.99999997,-5 2.76,0 5,2.24 5,5 0,2.76 -2.24,5 -5,5 -2.76,0 -4.99999997,-2.24 -4.99999997,-5 z"
       is_visible="true"
       id="path-effect4542"
       effect="skeletal" />
    <inkscape:path-effect
       fuse_tolerance="0"
       vertical_pattern="false"
       prop_units="false"
       tang_offset="0"
       normal_offset="0"
       spacing="0"
       scale_y_rel="false"
       prop_scale="0.26458333"
       copytype="single_stretched"
       pattern="M 0,5 C 0,2.24 2.24,0 5,0 7.76,0 10,2.24 10,5 10,7.76 7.76,10 5,10 2.24,10 0,7.76 0,5 Z"
       is_visible="true"
       id="path-effect4538"
       effect="skeletal" />
    <inkscape:path-effect
       fuse_tolerance="0"
       vertical_pattern="false"
       prop_units="false"
       tang_offset="0"
       normal_offset="0"
       spacing="0"
       scale_y_rel="false"
       prop_scale="0.26458333"
       copytype="single_stretched"
       pattern="M 0,5 C 0,2.24 2.24,0 5,0 7.76,0 10,2.24 10,5 10,7.76 7.76,10 5,10 2.24,10 0,7.76 0,5 Z"
       is_visible="true"
       id="path-effect4534"
       effect="skeletal" />
    <inkscape:path-effect
       fuse_tolerance="0"
       vertical_pattern="false"
       prop_units="false"
       tang_offset="0"
       normal_offset="0"
       spacing="0"
       scale_y_rel="false"
       prop_scale="0.26458333"
       copytype="single_stretched"
       pattern="M 0,5 C 0,2.24 2.24,0 5,0 7.76,0 10,2.24 10,5 10,7.76 7.76,10 5,10 2.24,10 0,7.76 0,5 Z"
       is_visible="true"
       id="path-effect4530"
       effect="skeletal" />
    <inkscape:path-effect
       fuse_tolerance="0"
       vertical_pattern="false"
       prop_units="false"
       tang_offset="0"
       normal_offset="0"
       spacing="0"
       scale_y_rel="false"
       prop_scale="0.26458333"
       copytype="single_stretched"
       pattern="M 0,5 C 0,2.24 2.24,0 5,0 7.76,0 10,2.24 10,5 10,7.76 7.76,10 5,10 2.24,10 0,7.76 0,5 Z"
       is_visible="true"
       id="path-effect4526"
       effect="skeletal" />
  </defs>
  <sodipodi:namedview
     id="base"
     pagecolor="#ffffff"
     bordercolor="#666666"
     borderopacity="1.0"
     inkscape:pageopacity="0.0"
     inkscape:pageshadow="2"
     inkscape:zoom="0.35355339"
     inkscape:cx="783.41054"
     inkscape:cy="-6.676272"
     inkscape:document-units="mm"
     inkscape:current-layer="g4575"
     showgrid="false"
     inkscape:window-width="1366"
     inkscape:window-height="705"
     inkscape:window-x="-8"
     inkscape:window-y="-8"
     inkscape:window-maximized="1">
    <inkscape:grid
       type="xygrid"
       id="grid52" />
  </sodipodi:namedview>
  <metadata
     id="metadata5">
    <rdf:RDF>
      <cc:Work
         rdf:about="">
        <dc:format>image/svg+xml</dc:format>
        <dc:type
           rdf:resource="http://purl.org/dc/dcmitype/StillImage" />
        <dc:title></dc:title>
      </cc:Work>
    </rdf:RDF>
  </metadata>
  <g
     inkscape:label="Layer 1"
     inkscape:groupmode="layer"
     id="layer1"
     transform="translate(0,-217)">
    <g
       transform="translate(35.538605,-134.33491)"
       id="layer1-8"
       inkscape:label="Layer 1"
       style="fill:#f57c00;fill-opacity:0.99447512">
      <g
         transform="translate(-40.821429,137.58333)"
         id="g4575"
         style="fill:#f57c00;fill-opacity:0.99447512">
        <g
           id="g4624"
           transform="translate(-45.410307,145.3358)"
           style="fill:#f57c00;fill-opacity:0.99447512;stroke:none;stroke-opacity:1">
          <path
             transform="matrix(-0.49972557,-0.86618379,0.84235199,-0.53892776,0,0)"
             d="m -133.13139,0.69335002 a 2.0350997,2.4055738 0 0 1 -2.03272,2.40557218 2.0350997,2.4055738 0 0 1 -2.03747,-2.39994614 2.0350997,2.4055738 0 0 1 2.02795,-2.41118506 2.0350997,2.4055738 0 0 1 2.04222,2.39430697"
             sodipodi:open="true"
             sodipodi:end="6.2785078"
             sodipodi:start="0"
             sodipodi:ry="2.4055738"
             sodipodi:rx="2.0350997"
             sodipodi:cy="0.69335002"
             sodipodi:cx="-135.16649"
             sodipodi:type="arc"
             id="path4500"
             style="fill:#f57c00;fill-opacity:0.99447512;stroke:none;stroke-width:1.47428989;stroke-linecap:round;stroke-linejoin:round;stroke-miterlimit:4;stroke-dasharray:none;stroke-opacity:1" />
          <path
             d="m 96.459529,73.04911 a 1.5119048,1.5119048 0 0 1 -1.510137,1.511904 1.5119048,1.5119048 0 0 1 -1.513668,-1.508368 1.5119048,1.5119048 0 0 1 1.506596,-1.515431 1.5119048,1.5119048 0 0 1 1.517193,1.504823"
             sodipodi:open="true"
             sodipodi:end="6.2785078"
             sodipodi:start="0"
             sodipodi:ry="1.5119048"
             sodipodi:rx="1.5119048"
             sodipodi:cy="73.04911"
             sodipodi:cx="94.947624"
             sodipodi:type="arc"
             id="path4518"
             style="fill:#f57c00;fill-opacity:0.99447512;stroke:none;stroke-width:1.69999993;stroke-linecap:round;stroke-linejoin:round;stroke-miterlimit:4;stroke-dasharray:none;stroke-opacity:1" />
          <path
             d="m 84.250896,116.85654 a 1.7008928,1.7008928 0 0 1 -1.698904,1.70089 1.7008928,1.7008928 0 0 1 -1.702877,-1.69692 1.7008928,1.7008928 0 0 1 1.694921,-1.70486 1.7008928,1.7008928 0 0 1 1.706841,1.69293"
             sodipodi:open="true"
             sodipodi:end="6.2785078"
             sodipodi:start="0"
             sodipodi:ry="1.7008928"
             sodipodi:rx="1.7008928"
             sodipodi:cy="116.85654"
             sodipodi:cx="82.550003"
             sodipodi:type="arc"
             id="path4520"
             style="fill:#f57c00;fill-opacity:0.99447512;stroke:none;stroke-width:1.69999993;stroke-linecap:round;stroke-linejoin:round;stroke-miterlimit:4;stroke-dasharray:none;stroke-opacity:1" />
          <path
             sodipodi:nodetypes="cc"
             inkscape:connector-curvature="0"
             id="path4522"
             d="m 80.697916,114.81548 c 0.750907,-1.01809 3.010694,-1.21945 4.157739,-0.18899"
             style="fill:#f57c00;fill-opacity:0.99447512;stroke:none;stroke-width:0.80000001;stroke-linecap:round;stroke-linejoin:miter;stroke-miterlimit:4;stroke-dasharray:none;stroke-opacity:1" />
          <path
             sodipodi:nodetypes="ccc"
             inkscape:original-d="m 89.615472,131.8007 c 1.494597,7.47528 -9.627269,11.22943 -13.096208,4.49013 -1.471504,-12.42915 17.792481,-7.20348 17.960514,-16.08962"
             inkscape:path-effect="#path-effect4530"
             inkscape:connector-curvature="0"
             id="path4528"
             d="m 89.615472,131.8007 c -0.216308,0.0433 1.81946,1.74481 -0.248367,5.26721 0,0 0,0 0,0 -0.794785,1.32386 -2.168118,2.60805 -4.090409,3.3306 -1.548742,0.59649 -3.468366,0.81905 -5.409588,0.25589 -1.873475,-0.63114 -3.569386,-2.02947 -4.578146,-3.98757 -0.192979,-1.332 -0.188936,-2.80088 0.195511,-4.26294 0.04049,-0.15396 0.08504,-0.30729 0.133811,-0.45983 0.466293,-1.26145 1.251598,-2.33207 2.20387,-3.1462 2.134178,-1.77196 4.715667,-2.5135 6.732077,-3.01278 2.972104,-0.78972 4.446457,-0.9487 6.433262,-1.84185 0,0 10e-7,0 10e-7,0 0.939902,-0.42764 1.603331,-0.8565 2.094332,-1.39107 1.093799,-1.13598 1.164562,-2.35537 1.397952,-2.35096 3.24e-4,1e-5 0.825803,1.1343 -0.362727,3.11478 -0.499079,0.80495 -1.269974,1.55436 -2.313286,2.1732 -10e-7,0 -10e-7,0 -10e-7,0 -2.003138,1.20305 -3.895903,1.6995 -6.588605,2.56052 -1.936031,0.65409 -4.220053,1.36154 -5.674965,2.71823 -0.631082,0.56664 -1.155238,1.28463 -1.435218,2.07886 -0.03793,0.0863 -0.07275,0.17436 -0.104615,0.26418 -0.301771,0.85062 -0.330266,1.83512 -0.250795,2.80386 0.604527,1.17612 1.69001,2.06127 2.861692,2.39797 1.299317,0.46655 2.750414,0.38712 3.969434,0.0411 1.513548,-0.44681 2.679911,-1.28156 3.427287,-2.2146 10e-7,0 10e-7,0 10e-7,0 1.721502,-2.08121 1.302513,-4.27767 1.607492,-4.33865 z"
             style="fill:#f57c00;fill-opacity:0.99447512;stroke:none;stroke-width:0.26458332px;stroke-linecap:butt;stroke-linejoin:miter;stroke-opacity:1" />
          <path
             sodipodi:nodetypes="ccc"
             inkscape:original-d="m 102.15041,132.36197 c 18.76102,-1.91152 6.68053,-19.98003 23.01191,-27.31495 -25.05473,-11.508752 -30.342489,19.80283 -17.21216,11.22533"
             inkscape:path-effect="#path-effect4534"
             inkscape:connector-curvature="0"
             id="path4532"
             d="m 102.15041,132.36197 c -0.0259,-0.25423 2.29146,-0.37778 5.41337,-2.05407 1.05609,-0.56541 2.21634,-1.40015 3.11985,-2.56576 1.47222,-1.83483 2.07182,-4.13758 2.79108,-7.26708 0.55979,-2.60397 1.20562,-5.93945 2.72379,-8.92505 1.737,-2.95586 4.72197,-5.27694 8.41687,-6.50531 -0.27703,-0.0997 -0.55689,-0.19668 -0.83923,-0.29054 -4.71387,-1.56713 -9.33139,-1.99753 -13.35559,-0.42858 -3.32944,0.97934 -5.89047,3.25184 -7.27965,5.71308 0,0 -1e-5,1e-5 -1e-5,1e-5 -0.6655,1.18447 -1.08786,2.35713 -1.23268,3.49667 -0.10734,1.03738 -0.0698,1.92138 0.31458,2.58339 0.30696,0.63893 1.05599,0.99748 1.67679,1.05503 2.40768,0.26455 3.93096,-1.08453 4.05058,-0.90141 -0.17451,-0.26714 -0.68386,1.90707 -4.0652,2.11519 -0.97852,0.0388 -2.18165,-0.36375 -2.95399,-1.46905 -0.65462,-1.01665 -0.90024,-2.26776 -0.79957,-3.54291 0.085,-1.41562 0.48951,-2.8739 1.20139,-4.29331 0,0 0,0 0,0 1.49825,-2.99786 4.37942,-5.81597 8.35966,-7.10398 4.76483,-1.15765 10.06524,-0.0125 15.1191,2.59165 0.30321,0.15624 0.60254,0.31622 0.89772,0.4794 -3.20276,1.86973 -5.80327,4.56602 -7.27742,7.68184 -1.37361,2.48324 -2.07613,5.66248 -2.7716,8.2703 -0.79554,3.15994 -1.75694,5.79873 -3.61543,7.8945 -1.21296,1.33109 -2.63666,2.17259 -3.89695,2.67675 -3.7353,1.48652 -5.99761,0.78781 -5.99746,0.78924 z"
             style="fill:#f57c00;fill-opacity:0.99447512;stroke:none;stroke-width:0.26458332px;stroke-linecap:butt;stroke-linejoin:miter;stroke-opacity:1" />
          <path
             sodipodi:nodetypes="cc"
             inkscape:original-d="m 77.641796,104.11158 c -39.829642,33.97345 13.908272,60.3981 17.960511,27.68912"
             inkscape:path-effect="#path-effect4538"
             inkscape:connector-curvature="0"
             id="path4536"
             d="m 77.641796,104.11158 c 0.283487,0.33235 -5.170847,4.38802 -9.91518,12.8316 -1.636747,2.92089 -3.161707,6.58974 -3.393922,10.52027 -0.171598,2.75983 0.300838,5.72007 1.607701,8.38805 0.38895,0.80023 0.850297,1.57528 1.377938,2.31605 1.029405,1.44521 2.273616,2.70762 3.637228,3.74883 2.130415,1.62287 4.531123,2.71047 6.933232,3.23896 2.565042,0.55963 5.073389,0.48564 7.25835,-0.164 2.657704,-0.77587 4.77013,-2.41544 6.182288,-4.13097 0,0 0,0 0,0 3.867573,-4.65441 3.935595,-9.10146 4.272876,-9.05967 -0.340557,-0.0422 1.26517,4.23767 -2.864751,10.12979 0,0 -10e-7,0 -10e-7,0 -1.467395,2.0737 -3.788337,4.10957 -6.913908,5.17995 -2.548641,0.86153 -5.467165,1.06512 -8.438915,0.47741 -2.777551,-0.54481 -5.547023,-1.73799 -8.007601,-3.58012 -1.58215,-1.18209 -3.020759,-2.62965 -4.213457,-4.30673 -0.611155,-0.85936 -1.145899,-1.76245 -1.598285,-2.69897 -1.511336,-3.14958 -2.015243,-6.56115 -1.747784,-9.72498 0.39119,-4.47858 2.169414,-8.40692 4.079514,-11.42618 5.590362,-8.85603 11.819562,-11.6515 11.744677,-11.73929 z"
             style="fill:#f57c00;fill-opacity:0.99447512;stroke:none;stroke-width:0.26458332px;stroke-linecap:butt;stroke-linejoin:miter;stroke-opacity:1" />
          <path
             sodipodi:nodetypes="cc"
             inkscape:original-d="m 69.254906,113.84019 c 7.790758,2.85762 6.430411,-6.27163 10.664054,-7.67063"
             inkscape:path-effect="#path-effect4542"
             inkscape:connector-curvature="0"
             id="path4540"
             d="m 69.254906,113.84019 c 0.09661,-0.26339 0.61095,-0.32096 1.381412,-0.36066 0.703766,-0.0363 1.807439,-0.047 2.468328,-0.53935 0,0 10e-7,0 10e-7,0 0.526915,-0.26993 0.935079,-0.83364 1.433476,-1.61744 0.07505,-0.11803 0.152361,-0.24122 0.22787,-0.36119 0.687867,-1.19978 1.050561,-2.07528 1.846911,-3.15665 1.468837,-2.13879 3.188596,-1.99083 3.306065,-1.63534 0.143782,0.43511 -0.668774,1.16198 -1.407456,2.74584 -0.284666,0.67016 -0.845066,2.22719 -1.435804,3.32526 -0.07914,0.15944 -0.166656,0.32045 -0.26326,0.48145 -0.63158,1.05254 -1.545037,1.92512 -2.692027,2.4256 0,0 -1e-6,0 -1e-6,0 -1.667365,0.56891 -3.065212,0.16936 -3.823565,-0.21125 -0.806726,-0.40489 -1.127615,-0.86272 -1.04195,-1.09627 z"
             style="fill:#f57c00;fill-opacity:0.99447512;stroke:none;stroke-width:0.26458332px;stroke-linecap:butt;stroke-linejoin:miter;stroke-opacity:1" />
          <path
             sodipodi:nodetypes="cc"
             inkscape:original-d="m 90.550914,76.609548 c 1.920117,7.892717 17.518576,9.059766 13.283296,25.818242"
             inkscape:path-effect="#path-effect4546"
             inkscape:connector-curvature="0"
             id="path4544"
             d="m 90.550914,76.609548 c 0.419137,-0.101966 1.368913,1.956841 4.182924,4.217745 1.173985,0.912729 3.958776,2.861606 5.660892,4.409996 0.57277,0.517103 1.13522,1.084567 1.66724,1.703287 1.3519,1.572185 2.34503,3.286521 2.92538,5.087194 0,0 0,2e-6 0,2e-6 2.03207,6.66667 -1.23891,10.378348 -1.15314,10.400028 -0.29647,-0.0749 -0.22976,-1.14674 -0.21501,-2.909197 0.014,-1.668966 -0.0165,-4.273499 -0.97561,-6.679131 0,10e-7 0,-10e-7 0,-10e-7 -0.53878,-1.430667 -1.41318,-2.80447 -2.5912,-4.165773 -0.46259,-0.534555 -0.951227,-1.043164 -1.445453,-1.522969 -1.813752,-1.745492 -3.783678,-3.243149 -5.276646,-4.744566 -3.037184,-2.959938 -3.261628,-5.679295 -2.779377,-5.796615 z"
             style="fill:#f57c00;fill-opacity:0.99447512;stroke:none;stroke-width:0.26458332px;stroke-linecap:butt;stroke-linejoin:miter;stroke-opacity:1" />
          <path
             sodipodi:nodetypes="cc"
             inkscape:original-d="M 77.08053,102.61487 C 71.72226,91.854539 69.52937,81.563153 90.738004,74.73866"
             inkscape:path-effect="#path-effect4550"
             inkscape:connector-curvature="0"
             id="path4548"
             d="m 77.08053,102.61487 c -0.193168,0.0962 -2.662761,-2.46783 -4.183958,-7.674413 -0.659732,-2.231969 -1.041208,-5.137614 -0.203048,-8.116047 0.297168,-0.988297 0.720618,-1.93851 1.257631,-2.840566 1.119808,-1.881014 2.632001,-3.385502 4.177868,-4.519856 0,0 2e-6,-10e-7 2e-6,-10e-7 6.650684,-4.910183 12.588953,-4.78759 12.608987,-4.72533 0.09634,0.299401 -1.159447,0.934927 -3.249007,1.976115 -1.953078,0.973183 -5.123419,2.53209 -7.811778,4.741698 0,0 -10e-7,10e-7 -10e-7,10e-7 -1.287108,1.066689 -2.556676,2.372922 -3.468119,3.880785 -0.439026,0.726309 -0.779291,1.473304 -1.009275,2.239986 -0.739496,2.275602 -0.532565,4.797871 -0.153352,6.841085 0.91576,4.821179 2.447989,7.990413 2.03405,8.196543 z"
             style="fill:#f57c00;fill-opacity:0.99447512;stroke:none;stroke-width:0.26458332px;stroke-linecap:butt;stroke-linejoin:miter;stroke-opacity:1" />
          <path
             sodipodi:nodetypes="cccc"
             inkscape:original-d="m 83.254457,96.440947 c 4.705918,-2.988657 3.274054,-12.41606 1.309621,-14.218738 -3.691041,2.972538 -7.573667,11.342203 -5.051395,19.270131 8.888962,-1.621804 13.639323,1.5356 18.708867,6.5481"
             inkscape:path-effect="#path-effect4554"
             inkscape:connector-curvature="0"
             id="path4552"
             d="m 83.254457,96.440947 c -0.134247,-0.211384 1.154124,-1.152035 1.824975,-3.468141 0.324344,-1.134936 0.470155,-2.450872 0.389845,-4.081104 -0.0652,-1.196306 -0.256388,-2.508309 -0.675469,-3.807023 -0.08774,-0.823397 -0.07014,-1.672639 -0.258506,-1.970466 -1.798249,1.663915 -2.886935,4.221777 -3.579189,7.288093 -0.429557,1.070153 -0.775958,2.193007 -1.013777,3.344961 -0.50335,2.438135 -0.479024,4.798316 0.06248,6.926213 4.045005,-0.946228 7.707321,-0.63312 10.676041,0.68302 5.979487,2.781 7.413677,6.81241 7.540698,6.68394 -0.279869,0.28306 -2.978558,-2.93671 -8.303612,-4.83989 -2.982705,-1.14556 -6.61591,-1.4616 -10.897389,-0.88935 -0.980483,-2.655563 -1.411619,-5.594533 -1.21795,-8.605969 0.09148,-1.422538 0.3189,-2.801356 0.658061,-4.10953 1.38685,-3.366334 3.404348,-6.284442 6.132191,-8.265496 1.263257,1.029757 1.903484,2.230881 2.313267,3.153338 0.393707,1.557537 0.498073,3.061071 0.4459,4.398426 -0.06209,1.81425 -0.432573,3.336674 -0.990168,4.569087 -1.264269,2.828179 -3.068091,3.05178 -3.107396,2.989891 z"
             style="fill:#f57c00;fill-opacity:0.99447512;stroke:none;stroke-width:0.26458332px;stroke-linecap:butt;stroke-linejoin:miter;stroke-opacity:1" />
          <path
             sodipodi:nodetypes="ccc"
             inkscape:original-d="m 91.539813,74.364481 c 1.628763,-6.429899 6.100937,-3.30037 11.225317,-3.407686 -2.883178,3.076601 -4.973252,9.958974 -10.289875,4.744036"
             inkscape:path-effect="#path-effect4513"
             inkscape:connector-curvature="0"
             id="path4511"
             d="m 91.539813,74.364481 c 0.08381,0.02123 -0.965421,-1.720096 1.136981,-3.923871 0,0 0,0 0,0 0.79196,-0.741384 1.90425,-1.219262 3.144876,-1.276518 2.376369,0.130042 5.01396,1.246464 7.4122,1.583719 -0.0379,0.05688 -0.0754,0.11462 -0.11276,0.173214 -1.25856,1.976176 -2.22277,4.594978 -3.799567,6.357049 0,0 -1e-6,10e-7 -1e-6,10e-7 -0.977304,0.896533 -2.236793,1.33767 -3.438899,1.249825 -3.448181,-0.540011 -3.219651,-3.018469 -3.40739,-2.82707 0.256067,-0.26106 1.724341,1.256028 3.483207,0.955819 0.571552,-0.0167 1.142447,-0.433005 1.785465,-1.058442 0,-10e-7 0,-10e-7 0,-10e-7 1.316608,-0.955214 2.370285,-2.632608 4.372295,-4.286302 0.0594,-0.04903 0.1194,-0.09775 0.18017,-0.146125 -2.704318,0.444114 -4.751609,0.04749 -6.43483,0.249468 -0.85379,-0.02052 -1.533242,0.08223 -2.01778,0.413159 0,0 0,0 0,0 -1.524032,0.865936 -1.963947,2.622206 -2.303967,2.536075 z"
             style="fill:#f57c00;fill-opacity:0.99447512;stroke:none;stroke-width:0.26458332px;stroke-linecap:butt;stroke-linejoin:miter;stroke-opacity:1" />
          <path
             sodipodi:nodetypes="ccc"
             inkscape:original-d="m 89.134385,77.838987 c -3.169982,5.180915 7.485055,12.137335 -0.668172,17.506153 3.951305,-0.266124 13.716367,0.659938 11.893497,10.82442"
             inkscape:path-effect="#path-effect4517"
             inkscape:connector-curvature="0"
             id="path4515"
             d="m 89.134385,77.838987 c 0.185965,0.113784 -0.133584,0.867455 2.22e-4,2.043767 0.05878,0.563082 0.217811,1.140391 0.505108,1.889581 0,0 0,0 0,10e-7 0.461845,1.194473 1.269884,2.555385 2.073069,4.323145 0.633525,1.317858 1.296075,3.102737 1.11109,5.144784 -0.462616,1.833914 -2.012459,3.246199 -3.973928,3.973768 -0.02145,0.008 -0.04292,0.01582 -0.06441,0.02359 3.094584,-0.688414 5.99667,-0.52131 8.360369,0.56199 1.735164,0.996845 2.928771,2.443469 3.553951,3.936467 0,0 0,0 0,1e-6 1.69686,4.297302 -0.51661,6.401842 -0.34015,6.433492 -0.376079,-0.0674 0.25679,-2.79941 -1.407514,-5.60029 0,0 0,0 0,0 -0.582744,-1.040406 -1.585929,-1.997296 -2.941551,-2.677145 -2.163634,-1.373057 -4.846473,-2.161983 -7.863759,-2.439475 0.01316,-0.01505 0.0263,-0.03013 0.03943,-0.04525 1.205151,-1.387939 2.128349,-2.909109 2.118766,-4.500876 0.242992,-1.198751 -0.248909,-2.669963 -0.679836,-3.958815 -0.69072,-1.921394 -1.228582,-3.012448 -1.586573,-4.709991 0,0 0,-10e-7 0,-10e-7 -0.193036,-0.900094 -0.221001,-1.702282 -0.113376,-2.403504 0.255681,-1.626461 1.1112,-2.055129 1.209087,-1.995236 z"
             style="fill:#f57c00;fill-opacity:0.99447512;stroke:none;stroke-width:0.26458332px;stroke-linecap:butt;stroke-linejoin:miter;stroke-opacity:1" />
          <path
             d="m 103.55619,130.62471 a 1.8708867,1.8708867 0 0 1 -1.8687,1.87089 1.8708867,1.8708867 0 0 1 -1.873069,-1.86651 1.8708867,1.8708867 0 0 1 1.864319,-1.87526 1.8708867,1.8708867 0 0 1 1.87743,1.86213"
             sodipodi:open="true"
             sodipodi:end="6.2785078"
             sodipodi:start="0"
             sodipodi:ry="1.8708867"
             sodipodi:rx="1.8708867"
             sodipodi:cy="130.62471"
             sodipodi:cx="101.6853"
             sodipodi:type="arc"
             id="path4519"
             style="fill:#f57c00;fill-opacity:0.99447512;stroke:none;stroke-width:2.20000005;stroke-linecap:round;stroke-linejoin:round;stroke-miterlimit:4;stroke-dasharray:none;stroke-opacity:1" />
          <path
             d="m 95.548865,131.56017 a 1.8708867,1.8708867 0 0 1 -1.868699,1.87088 1.8708867,1.8708867 0 0 1 -1.873069,-1.86651 1.8708867,1.8708867 0 0 1 1.864318,-1.87525 1.8708867,1.8708867 0 0 1 1.87743,1.86212"
             sodipodi:open="true"
             sodipodi:end="6.2785078"
             sodipodi:start="0"
             sodipodi:ry="1.8708867"
             sodipodi:rx="1.8708867"
             sodipodi:cy="131.56017"
             sodipodi:cx="93.677979"
             sodipodi:type="arc"
             id="path4519-2"
             style="fill:#f57c00;fill-opacity:0.99447512;stroke:none;stroke-width:2.20000005;stroke-linecap:round;stroke-linejoin:round;stroke-miterlimit:4;stroke-dasharray:none;stroke-opacity:1" />
        </g>
        <text
           xml:space="preserve"
           style="font-style:normal;font-variant:normal;font-weight:normal;font-stretch:normal;font-size:41.13131714px;line-height:1.25;font-family:Courgette;-inkscape-font-specification:Courgette;letter-spacing:0px;word-spacing:0px;fill:#ff7043;fill-opacity:1;stroke:none;stroke-width:1.02828288;"
           x="84.422791"
           y="270.60504"
           id="text39-7"
           transform="scale(0.99333798,1.0067067)"><tspan
             sodipodi:role="line"
             id="tspan37-8"
             x="84.422791"
             y="270.60504"
             style="stroke-width:1.02828288;fill:#ff7043;fill-opacity:1;">Elakvi Party Halls</tspan></text>
      </g>
    </g>
  </g>
</svg>
